HIERARCHY
ROOT Hips
{
  OFFSET -66.6987 92.9402 47.807
  CHANNELS 6 Xposition Yposition Zposition Zrotation Xrotation Yrotation
  JOINT Spine
  {
    OFFSET 0 8 0
    CHANNELS 6 Xposition Yposition Zposition Zrotation Xrotation Yrotation
    JOINT Spine1
    {
      OFFSET 0 8 0
      CHANNELS 6 Xposition Yposition Zposition Zrotation Xrotation Yrotation
      JOINT Spine2
      {
        OFFSET 0 8 0
        CHANNELS 6 Xposition Yposition Zposition Zrotation Xrotation Yrotation
        JOINT Spine3
        {
          OFFSET 0 8 0
          CHANNELS 6 Xposition Yposition Zposition Zrotation Xrotation Yrotation
          JOINT Neck
          {
            OFFSET 0.00018207 17.0001 0.000201914
            CHANNELS 6 Xposition Yposition Zposition Zrotation Xrotation Yrotation
            JOINT Head
            {
              OFFSET 0 10.8 0
              CHANNELS 6 Xposition Yposition Zposition Zrotation Xrotation Yrotation
              End Site
              {
                OFFSET 0 20.25 0
              }
            }
          }
          JOINT LeftShoulder
          {
            OFFSET 5.00019 16.9999 0.000455442
            CHANNELS 6 Xposition Yposition Zposition Zrotation Xrotation Yrotation
            JOINT LeftShoulder2
            {
              OFFSET 6.45 0 0
              CHANNELS 6 Xposition Yposition Zposition Zrotation Xrotation Yrotation
              JOINT LeftArm
              {
                OFFSET 6.44998 0.00069384 0.000261268
                CHANNELS 6 Xposition Yposition Zposition Zrotation Xrotation Yrotation
                JOINT LeftForeArm
                {
                  OFFSET -1.19202e-05 -32.4 -2.00001
                  CHANNELS 6 Xposition Yposition Zposition Zrotation Xrotation Yrotation
                  JOINT LeftHand
                  {
                    OFFSET -1.30179e-05 -25.65 2
                    CHANNELS 6 Xposition Yposition Zposition Zrotation Xrotation Yrotation
                    JOINT LeftHandThumb1
                    {
                      OFFSET -0.499999 -1.5 2.65
                      CHANNELS 6 Xposition Yposition Zposition Zrotation Xrotation Yrotation
                      JOINT LeftHandThumb2
                      {
                        OFFSET 0 -3.8 3.70001
                        CHANNELS 6 Xposition Yposition Zposition Zrotation Xrotation Yrotation
                        JOINT LeftHandThumb3
                        {
                          OFFSET 0 -3 2.7
                          CHANNELS 6 Xposition Yposition Zposition Zrotation Xrotation Yrotation
                          End Site
                          {
                            OFFSET 0 -2.29999 1.8
                          }
                        }
                      }
                    }
                    JOINT LeftHandIndex
                    {
                      OFFSET 0 -1.9 1.6
                      CHANNELS 6 Xposition Yposition Zposition Zrotation Xrotation Yrotation
                      JOINT LeftHandIndex1
                      {
                        OFFSET 1.57189e-05 -8.3 1.9
                        CHANNELS 6 Xposition Yposition Zposition Zrotation Xrotation Yrotation
                        JOINT LeftHandIndex2
                        {
                          OFFSET -1.37333e-05 -4.5 0
                          CHANNELS 6 Xposition Yposition Zposition Zrotation Xrotation Yrotation
                          JOINT LeftHandIndex3
                          {
                            OFFSET 0 -3.4 0
                            CHANNELS 6 Xposition Yposition Zposition Zrotation Xrotation Yrotation
                            End Site
                            {
                              OFFSET 0 -2.6 0
                            }
                          }
                        }
                      }
                    }
                    JOINT LeftHandMiddle
                    {
                      OFFSET -0.249999 -2.2 0.400002
                      CHANNELS 6 Xposition Yposition Zposition Zrotation Xrotation Yrotation
                      JOINT LeftHandMiddle1
                      {
                        OFFSET 0 -8.29999 1
                        CHANNELS 6 Xposition Yposition Zposition Zrotation Xrotation Yrotation
                        JOINT LeftHandMiddle2
                        {
                          OFFSET 0 -4.65001 0
                          CHANNELS 6 Xposition Yposition Zposition Zrotation Xrotation Yrotation
                          JOINT LeftHandMiddle3
                          {
                            OFFSET 0 -3.3 0
                            CHANNELS 6 Xposition Yposition Zposition Zrotation Xrotation Yrotation
                            End Site
                            {
                              OFFSET 0 -2.7 0
                            }
                          }
                        }
                      }
                    }
                    JOINT LeftHandRing
                    {
                      OFFSET -0.499998 -2.15 -0.8
                      CHANNELS 6 Xposition Yposition Zposition Zrotation Xrotation Yrotation
                      JOINT LeftHandRing1
                      {
                        OFFSET 0 -7.75 -0.200004
                        CHANNELS 6 Xposition Yposition Zposition Zrotation Xrotation Yrotation
                        JOINT LeftHandRing2
                        {
                          OFFSET 0 -3.79999 0
                          CHANNELS 6 Xposition Yposition Zposition Zrotation Xrotation Yrotation
                          JOINT LeftHandRing3
                          {
                            OFFSET 1.00609e-05 -3.40001 0
                            CHANNELS 6 Xposition Yposition Zposition Zrotation Xrotation Yrotation
                            End Site
                            {
                              OFFSET 0 -2.6 0
                            }
                          }
                        }
                      }
                    }
                    JOINT LeftHandPinky
                    {
                      OFFSET -0.749996 -1.75 -1.85
                      CHANNELS 6 Xposition Yposition Zposition Zrotation Xrotation Yrotation
                      JOINT LeftHandPinky1
                      {
                        OFFSET 0 -7.15 -1
                        CHANNELS 6 Xposition Yposition Zposition Zrotation Xrotation Yrotation
                        JOINT LeftHandPinky2
                        {
                          OFFSET 1.3207e-05 -3 0
                          CHANNELS 6 Xposition Yposition Zposition Zrotation Xrotation Yrotation
                          JOINT LeftHandPinky3
                          {
                            OFFSET -1.05668e-05 -2.35 0
                            CHANNELS 6 Xposition Yposition Zposition Zrotation Xrotation Yrotation
                            End Site
                            {
                              OFFSET 1.63802e-05 -2.1 0
                            }
                          }
                        }
                      }
                    }
                  }
                }
              }
            }
          }
          JOINT RightShoulder
          {
            OFFSET -4.99981 17.0001 -3.24782e-05
            CHANNELS 6 Xposition Yposition Zposition Zrotation Xrotation Yrotation
            JOINT RightShoulder2
            {
              OFFSET -6.45 0 0
              CHANNELS 6 Xposition Yposition Zposition Zrotation Xrotation Yrotation
              JOINT RightArm
              {
                OFFSET -6.45 -1.94688e-05 -0.000372257
                CHANNELS 6 Xposition Yposition Zposition Zrotation Xrotation Yrotation
                JOINT RightForeArm
                {
                  OFFSET 0 -32.4 -1.99999
                  CHANNELS 6 Xposition Yposition Zposition Zrotation Xrotation Yrotation
                  JOINT RightHand
                  {
                    OFFSET 0 -25.65 2
                    CHANNELS 6 Xposition Yposition Zposition Zrotation Xrotation Yrotation
                    JOINT RightHandThumb1
                    {
                      OFFSET 0.500007 -1.5 2.65
                      CHANNELS 6 Xposition Yposition Zposition Zrotation Xrotation Yrotation
                      JOINT RightHandThumb2
                      {
                        OFFSET 0 -3.8 3.7
                        CHANNELS 6 Xposition Yposition Zposition Zrotation Xrotation Yrotation
                        JOINT RightHandThumb3
                        {
                          OFFSET 0 -3 2.7
                          CHANNELS 6 Xposition Yposition Zposition Zrotation Xrotation Yrotation
                          End Site
                          {
                            OFFSET 0 -2.3 1.8
                          }
                        }
                      }
                    }
                    JOINT RightHandIndex
                    {
                      OFFSET 0 -1.9 1.6
                      CHANNELS 6 Xposition Yposition Zposition Zrotation Xrotation Yrotation
                      JOINT RightHandIndex1
                      {
                        OFFSET 0 -8.3 1.9
                        CHANNELS 6 Xposition Yposition Zposition Zrotation Xrotation Yrotation
                        JOINT RightHandIndex2
                        {
                          OFFSET 0 -4.5 0
                          CHANNELS 6 Xposition Yposition Zposition Zrotation Xrotation Yrotation
                          JOINT RightHandIndex3
                          {
                            OFFSET 0 -3.4 0
                            CHANNELS 6 Xposition Yposition Zposition Zrotation Xrotation Yrotation
                            End Site
                            {
                              OFFSET 0 -2.6 0
                            }
                          }
                        }
                      }
                    }
                    JOINT RightHandMiddle
                    {
                      OFFSET 0.250001 -2.2 0.399996
                      CHANNELS 6 Xposition Yposition Zposition Zrotation Xrotation Yrotation
                      JOINT RightHandMiddle1
                      {
                        OFFSET 0 -8.3 1
                        CHANNELS 6 Xposition Yposition Zposition Zrotation Xrotation Yrotation
                        JOINT RightHandMiddle2
                        {
                          OFFSET 0 -4.65 0
                          CHANNELS 6 Xposition Yposition Zposition Zrotation Xrotation Yrotation
                          JOINT RightHandMiddle3
                          {
                            OFFSET -1.38784e-05 -3.3 0
                            CHANNELS 6 Xposition Yposition Zposition Zrotation Xrotation Yrotation
                            End Site
                            {
                              OFFSET 1.2646e-05 -2.7 0
                            }
                          }
                        }
                      }
                    }
                    JOINT RightHandRing
                    {
                      OFFSET 0.500005 -2.15 -0.800004
                      CHANNELS 6 Xposition Yposition Zposition Zrotation Xrotation Yrotation
                      JOINT RightHandRing1
                      {
                        OFFSET -1.24181e-05 -7.75 -0.199999
                        CHANNELS 6 Xposition Yposition Zposition Zrotation Xrotation Yrotation
                        JOINT RightHandRing2
                        {
                          OFFSET 0 -3.80001 0
                          CHANNELS 6 Xposition Yposition Zposition Zrotation Xrotation Yrotation
                          JOINT RightHandRing3
                          {
                            OFFSET 0 -3.4 0
                            CHANNELS 6 Xposition Yposition Zposition Zrotation Xrotation Yrotation
                            End Site
                            {
                              OFFSET 0 -2.6 0
                            }
                          }
                        }
                      }
                    }
                    JOINT RightHandPinky
                    {
                      OFFSET 0.75 -1.75 -1.85
                      CHANNELS 6 Xposition Yposition Zposition Zrotation Xrotation Yrotation
                      JOINT RightHandPinky1
                      {
                        OFFSET 0 -7.14999 -1
                        CHANNELS 6 Xposition Yposition Zposition Zrotation Xrotation Yrotation
                        JOINT RightHandPinky2
                        {
                          OFFSET 0 -3 0
                          CHANNELS 6 Xposition Yposition Zposition Zrotation Xrotation Yrotation
                          JOINT RightHandPinky3
                          {
                            OFFSET -1.29746e-05 -2.35 0
                            CHANNELS 6 Xposition Yposition Zposition Zrotation Xrotation Yrotation
                            End Site
                            {
                              OFFSET 1.12692e-05 -2.1 0
                            }
                          }
                        }
                      }
                    }
                  }
                }
              }
            }
          }
        }
      }
    }
  }
  JOINT LeftUpLeg
  {
    OFFSET 8 0 0
    CHANNELS 6 Xposition Yposition Zposition Zrotation Xrotation Yrotation
    JOINT LeftLeg
    {
      OFFSET 0 -45 -1
      CHANNELS 6 Xposition Yposition Zposition Zrotation Xrotation Yrotation
      JOINT LeftFoot
      {
        OFFSET 0 -41.0001 -1.99998
        CHANNELS 6 Xposition Yposition Zposition Zrotation Xrotation Yrotation
        JOINT LeftToeBase
        {
          OFFSET 0 -7.5 12.5
          CHANNELS 6 Xposition Yposition Zposition Zrotation Xrotation Yrotation
          JOINT LeftFootToe
          {
            OFFSET 0 0 4
            CHANNELS 6 Xposition Yposition Zposition Zrotation Xrotation Yrotation
            End Site
            {
              OFFSET 0 0 0
            }
          }
        }
      }
    }
  }
  JOINT RightUpLeg
  {
    OFFSET -8 0 0
    CHANNELS 6 Xposition Yposition Zposition Zrotation Xrotation Yrotation
    JOINT RightLeg
    {
      OFFSET 0 -45 -0.999998
      CHANNELS 6 Xposition Yposition Zposition Zrotation Xrotation Yrotation
      JOINT RightFoot
      {
        OFFSET 0 -41.0001 -2
        CHANNELS 6 Xposition Yposition Zposition Zrotation Xrotation Yrotation
        JOINT RightToeBase
        {
          OFFSET 0 -7.5 12.5
          CHANNELS 6 Xposition Yposition Zposition Zrotation Xrotation Yrotation
          JOINT RightFootToe
          {
            OFFSET 0 0 4
            CHANNELS 6 Xposition Yposition Zposition Zrotation Xrotation Yrotation
            End Site
            {
              OFFSET 0 0 0
            }
          }
        }
      }
    }
  }
}
MOTION
Frames:	3
Frame Time:	0.0111111
-76.754 93.0243 43.3692 2.37293 1.45676 -107.366 0 8 1.42109e-14 2.03929 -1.66737 -0.900213 -1.42109e-14 8 2.13163e-14 0.0649416 0.66695 -9.97165 0 8 1.42109e-14 -0.487541 -0.212226 26.9672 0 8 0 -0.223554 -0.146185 16.2197 -3.55271e-15 17 0 2.74521 5.95314 -11.8316 0 10.8 0 8.4175 12.8578 -28.6465 5 17 0 1.2855 -0.0363101 -2.7439 6.45 -2.84217e-14 0 1.2856 -0.0407543 -2.74388 6.45 -2.84217e-14 0 -26.4411 -17.9193 -64.4301 -1.42109e-14 -32.4 -2 -38.9387 -63.1637 -22.3433 -1.42109e-14 -25.65 2 33.7799 -50.9184 -21.5852 -0.5 -1.5 2.65 -33.629 -15.5052 4.98144 -2.84217e-14 -3.8 3.7 0.00222066 22.328 -0.00178107 -2.84217e-14 -3 2.7 0.00262865 47.6428 0.0053096 0 -1.9 1.6 3.18055e-15 -4.37326e-15 -1.59028e-15 -7.10543e-15 -8.3 1.9 -3.55483 -5.71815 -0.152393 0 -4.5 0 -9.34283 -0.00184571 0.00650845 0 -3.4 2.57572e-14 -8.29456 -0.0018094 -0.0116194 -0.25 -2.2 0.4 3.18055e-15 -4.37326e-15 -1.59028e-15 7.10543e-15 -8.3 1 -3.17954 -0.91688 0.0694295 0 -4.65 7.99361e-15 -5.64307 -0.00447692 -8.71521e-05 0 -3.3 -4.44089e-15 -5.23708 -0.00402405 -0.00183623 -0.5 -2.15 -0.8 3.18055e-15 -4.37326e-15 -1.59028e-15 -1.42109e-14 -7.75 -0.2 -2.36902 7.8374 0.385921 0 -3.8 3.55271e-15 -19.5677 -0.0520078 -0.0157749 -1.42109e-14 -3.4 -1.77636e-14 -15.5516 -0.0306958 -0.0111608 -0.75 -1.75 -1.85 3.18055e-15 -4.37326e-15 -1.59028e-15 7.10543e-15 -7.15 -1 -2.06098 12.3026 0.517187 0 -3 0 -0.184825 -0.00408266 -9.34955e-05 0 -2.35 -1.42109e-14 -0.178788 -0.00391816 -2.4522e-05 -5 17 -1.42109e-14 0.00148276 0.000722963 1.20124 -6.45 5.68434e-14 0 0.00185559 -9.737e-05 1.20265 -6.45 -2.84217e-14 1.42109e-14 -42.7884 -5.01079 -47.1004 -9.76996e-15 -32.4 -2 105.103 -31.366 37.4543 -8.88178e-15 -25.65 2 -50.3441 13.37 9.76753 0.5 -1.5 2.65 34.9372 -7.70509 24.7803 7.10543e-15 -3.8 3.7 0.00798125 12.1689 0.0267891 -1.42109e-14 -3 2.7 0.00383017 -1.1157e-06 -0.000711842 0 -1.9 1.6 -8.32695e-05 0.00274995 6.25023e-05 7.10543e-15 -8.3 1.9 1.8288 -11.237 0.107296 0 -4.5 -2.84217e-14 0.000215286 0.00118864 2.53758e-05 -7.10543e-15 -3.4 0 1.14995e-06 0.00110632 7.45176e-05 0.25 -2.2 0.4 -5.0779e-06 7.57503e-05 -3.40133e-06 -7.10543e-15 -8.3 1 2.99536 -1.61285 -0.267056 0 -4.65 0 0.000173901 -0.00269666 -0.00643243 0 -3.3 0 2.00403e-05 -0.00263283 0.00329093 0.5 -2.15 -0.8 4.49736e-06 9.75964e-05 -3.01013e-06 -7.10543e-15 -7.75 -0.2 5.5354 13.6799 -1.42848 0 -3.8 0 -2.59657e-05 0.00161821 -0.000111161 0 -3.4 2.84217e-14 1.14446e-05 0.00156533 -8.67915e-05 0.75 -1.75 -1.85 3.1475e-06 3.19819e-06 5.93895e-06 0 -7.15 -1 7.53649 22.2199 -2.54668 7.10543e-15 -3 0 0.000440134 0.00147379 -2.96093e-05 0 -2.35 -2.84217e-14 -1.14732e-05 0.000793112 4.10746e-05 8 1.42109e-14 0 12.8727 -3.61224 42.5405 0 -45 -1 0.00342095 3.82999 -0.00504019 7.10543e-15 -41 -2 -6.70639 4.4261 -41.5021 1.42109e-14 -7.5 12.5 7.55053e-10 -5.90499e-08 1.36343e-08 0 0 4 7.78809 -0.560102 -0.0213007 -8 1.42109e-14 7.10543e-15 2.84449 -3.40564 -6.05003 7.10543e-15 -45 -1 -0.0012782 4.79191 -0.0340692 1.42109e-14 -41 -2 -0.909323 -3.30535 10.4493 7.10543e-15 -7.5 12.5 -6.60458e-05 0.0465634 0.000424668 -7.10543e-15 0 4 5.14562 -0.556877 0.000864042 
-76.8042 93.0234 43.3482 2.45118 1.42475 -107.31 7.10543e-15 8 0 2.02329 -1.73285 -0.89587 -1.42109e-14 8 7.10543e-15 0.066869 0.693393 -9.9738 0 8 -1.42109e-14 -0.513598 -0.228199 26.9399 0 8 0 -0.235335 -0.155403 16.2038 -3.55271e-15 17 0 2.70879 5.96133 -11.8261 0 10.8 -7.10543e-15 8.33456 12.8895 -28.6297 5 17 1.42109e-14 1.28601 -0.0360058 -2.71551 6.45 0 0 1.28566 -0.0406304 -2.71531 6.45 0 -1.42109e-14 -26.5536 -17.6924 -64.9117 -1.42109e-14 -32.4 -2 -37.5099 -63.0909 -21.452 1.42109e-14 -25.65 2 32.6902 -50.9929 -22.5817 -0.5 -1.5 2.65 -33.6476 -15.3305 5.00868 0 -3.8 3.7 0.00218593 22.3442 -0.00254179 2.84217e-14 -3 2.7 0.00899749 47.7717 -0.00204259 0 -1.9 1.6 1.59028e-15 6.36111e-15 1.59028e-15 0 -8.3 1.9 -2.67876 -5.5631 -0.106028 0 -4.5 0 -9.00732 -0.00702963 0.00895637 -1.42109e-14 -3.4 -8.88178e-16 -7.99905 -0.00622261 -0.0116443 -0.25 -2.2 0.4 1.59028e-15 6.36111e-15 1.59028e-15 0 -8.3 1 -2.54937 -0.753182 0.0805825 0 -4.65 -2.66454e-15 -5.34738 -0.00837624 -8.28027e-05 0 -3.3 8.88178e-15 -4.96434 -0.00754252 -0.0018329 -0.5 -2.15 -0.8 1.59028e-15 6.36111e-15 1.59028e-15 0 -7.75 -0.2 -2.23718 8.0659 0.391536 0 -3.8 7.10543e-15 -17.784 -0.0568468 -0.0141569 1.42109e-14 -3.4 -1.42109e-14 -14.3077 -0.0353008 -0.0109947 -0.75 -1.75 -1.85 1.59028e-15 6.36111e-15 1.59028e-15 0 -7.15 -1 -2.17552 12.5671 0.548834 0 -3 7.10543e-15 0.0288251 0.000866849 -9.30472e-05 -1.42109e-14 -2.35 -7.10543e-15 0.0269305 0.000809701 -2.39464e-05 -5 17 0 0.00148291 0.000722966 1.1889 -6.45 -2.84217e-14 0 0.00185573 -0.0001006 1.18836 -6.45 0 -1.42109e-14 -43.0153 -4.90963 -47.0015 5.32907e-15 -32.4 -2 105.036 -31.5071 37.2223 1.77636e-15 -25.65 2 -49.8419 13.5714 9.63463 0.5 -1.5 2.65 35.1618 -7.7982 24.7435 0 -3.8 3.7 0.00741825 12.7109 0.0267109 -7.10543e-15 -3 2.7 0.00376559 -0.00301842 -0.000710502 0 -1.9 1.6 -8.32697e-05 0.00288531 6.25023e-05 0 -8.3 1.9 1.89006 -11.418 0.114757 0 -4.5 2.84217e-14 0.000219177 0.00127678 2.62829e-05 -7.10543e-15 -3.4 -2.84217e-14 1.31314e-06 0.00118751 7.74319e-05 0.25 -2.2 0.4 -5.0779e-06 7.57503e-05 -3.40133e-06 0 -8.3 1 3.04663 -1.71486 -0.267179 0 -4.65 0 0.000169841 -0.00301455 -0.00707876 0 -3.3 0 2.13487e-05 -0.00294995 0.00326571 0.5 -2.15 -0.8 4.49736e-06 9.75964e-05 -3.01013e-06 0 -7.75 -0.2 5.58074 13.6783 -1.43887 -7.10543e-15 -3.8 0 -2.85361e-05 0.00160386 -0.00011927 -7.10543e-15 -3.4 0 1.18157e-05 0.00154783 -9.40223e-05 0.75 -1.75 -1.85 3.1475e-06 3.19819e-06 5.93895e-06 0 -7.15 -1 7.59384 22.2912 -2.57072 -7.10543e-15 -3 2.84217e-14 0.000444864 0.0015653 -3.05368e-05 0 -2.35 -2.84217e-14 -1.18674e-05 0.000902614 4.28757e-05 8 0 0 12.8709 -3.67306 42.5869 7.10543e-15 -45 -1 0.00314336 3.83036 0.00158323 -3.55271e-15 -41 -2 -6.72782 4.40838 -41.5459 -1.42109e-14 -7.5 12.5 7.55053e-10 -5.90499e-08 1.36343e-08 0 0 4 7.80984 -0.593272 -0.0221983 -8 0 7.10543e-15 2.84039 -3.45328 -6.0517 0 -45 -1 -0.00128128 4.79385 -0.0347253 7.10543e-15 -41 -2 -0.910869 -3.34633 10.4044 0 -7.5 12.5 -6.60467e-05 0.0466842 0.000424668 0 0 4 5.15781 -0.540548 0.000895415 
-76.852 93.0228 43.3276 2.53442 1.39226 -107.266 0 8 -7.10543e-15 2.00821 -1.80011 -0.892793 0 8 0 0.0701901 0.721777 -9.97652 1.42109e-14 8 1.42109e-14 -0.541535 -0.244665 26.9089 -7.10543e-15 8 1.42109e-14 -0.248483 -0.164729 16.1901 3.55271e-15 17 1.42109e-14 2.67175 5.96993 -11.8158 -7.10543e-15 10.8 0 8.24954 12.9227 -28.6014 5 17 0 1.2865 -0.0357594 -2.69452 6.45 0 1.42109e-14 1.28588 -0.0405137 -2.69376 6.45 2.84217e-14 0 -26.6487 -17.5166 -65.3626 0 -32.4 -2 -36.205 -63.0168 -20.5952 1.42109e-14 -25.65 2 31.536 -50.9938 -23.6145 -0.5 -1.5 2.65 -33.6271 -15.2118 5.10756 2.84217e-14 -3.8 3.7 0.00196861 22.3771 -0.00300176 0 -3 2.7 0.0207681 48.0421 -0.0176423 0 -1.9 1.6 6.36111e-15 -5.56597e-15 -1.59028e-15 0 -8.3 1.9 -1.96871 -5.45507 -0.0693698 -1.42109e-14 -4.5 4.44089e-15 -8.18279 -0.0124988 0.0125165 1.42109e-14 -3.4 -7.99361e-15 -7.27918 -0.0113462 -0.0116696 -0.25 -2.2 0.4 6.36111e-15 -5.56597e-15 -1.59028e-15 0 -8.3 1 -2.03424 -0.63725 0.0893126 0 -4.65 -9.76996e-15 -4.71257 -0.0105156 -7.8457e-05 0 -3.3 8.88178e-15 -4.37818 -0.00906228 -0.0018295 -0.5 -2.15 -0.8 6.36111e-15 -5.56597e-15 -1.59028e-15 0 -7.75 -0.2 -2.1198 8.2448 0.396561 0 -3.8 7.10543e-15 -15.6291 -0.0593717 -0.00935204 -1.42109e-14 -3.4 3.55271e-15 -12.7539 -0.0396687 -0.0103295 -0.75 -1.75 -1.85 6.36111e-15 -5.56597e-15 -1.59028e-15 0 -7.15 -1 -2.25316 12.7828 0.575173 0 -3 0 0.0738883 0.00175431 -9.25828e-05 -1.42109e-14 -2.35 1.42109e-14 0.0700119 0.0016521 -2.33575e-05 -5 17 0 0.00148301 0.000722968 1.18084 -6.45 0 1.42109e-14 0.00185587 -0.000103829 1.17833 -6.45 0 1.42109e-14 -43.2454 -4.82058 -46.8622 7.10543e-15 -32.4 -2 104.933 -31.6921 37.0103 5.32907e-15 -25.65 2 -49.3032 13.8273 9.49624 0.5 -1.5 2.65 35.3716 -7.86135 24.6787 0 -3.8 3.7 0.00682519 13.4048 0.0266358 0 -3 2.7 0.00361629 -0.0480064 -0.00139989 0 -1.9 1.6 -8.32698e-05 0.00302287 6.25023e-05 -7.10543e-15 -8.3 1.9 1.94135 -11.5653 0.121734 0 -4.5 2.84217e-14 0.000222884 0.00136553 2.71606e-05 7.10543e-15 -3.4 0 1.46855e-06 0.001269 8.02731e-05 0.25 -2.2 0.4 -5.0779e-06 7.57503e-05 -3.40133e-06 -7.10543e-15 -8.3 1 3.09512 -1.78514 -0.267009 0 -4.65 -2.84217e-14 0.000166151 -0.0033218 -0.00769673 -7.10543e-15 -3.3 0 2.26281e-05 -0.0032567 0.00324082 0.5 -2.15 -0.8 4.49736e-06 9.75964e-05 -3.01013e-06 -7.10543e-15 -7.75 -0.2 5.63597 13.7027 -1.45328 0 -3.8 0 -3.09409e-05 0.00158967 -0.000127231 0 -3.4 2.84217e-14 1.21664e-05 0.00153056 -0.000101202 0.75 -1.75 -1.85 3.1475e-06 3.19819e-06 5.93895e-06 0 -7.15 -1 7.66956 22.3857 -2.60255 0 -3 0 0.000449519 0.00165862 -3.14422e-05 0 -2.35 -2.84217e-14 -1.22614e-05 0.00101394 4.46633e-05 8 0 -7.10543e-15 12.8703 -3.73629 42.6377 1.42109e-14 -45 -1 0.00289716 3.83024 0.00813704 3.55271e-15 -41 -2 -6.74947 4.39059 -41.586 0 -7.5 12.5 7.55053e-10 -5.90499e-08 1.36343e-08 0 0 4 7.83086 -0.625846 -0.0229755 -8 -1.42109e-14 -7.10543e-15 2.83779 -3.50513 -6.04908 -7.10543e-15 -45 -1 -0.00132953 4.79428 -0.0347903 0 -41 -2 -0.912996 -3.38471 10.3678 0 -7.5 12.5 -6.60476e-05 0.0468036 0.000424668 0 0 4 5.17094 -0.526969 0.00092705 
